<!--?xml version="1.0" encoding="utf-8"?-->
<!-- Generator: Adobe Illustrator 24.1.1, SVG Export Plug-In . SVG Version: 6.00 Build 0)  -->
<svg version="1.1" id="_x31_0" xmlns="http://www.w3.org/2000/svg" xmlns:xlink="http://www.w3.org/1999/xlink" x="0px" y="0px" viewBox="0 0 512 512" style="width: 256px; height: 256px; opacity: 1;" xml:space="preserve">
<style type="text/css">
	.st0{fill:#374149;}
</style>
<g>
	<path class="st0" d="M64.026,486.18H447.97c23.11,0,43.805-11.949,55.363-31.965c11.555-20.011,11.555-43.91,0-63.922
		L311.358,57.785c-11.555-20.015-32.25-31.965-55.359-31.965c-23.11,0-43.805,11.95-55.36,31.965L8.666,390.293
		c-11.555,20.011-11.555,43.91,0,63.922C20.221,474.231,40.916,486.18,64.026,486.18z M255.998,54.262
		c11.949,0,23.902,5.914,30.73,17.742l191.976,332.508c13.657,23.657-3.418,53.226-30.734,53.226H64.026
		c-27.317,0-44.391-29.57-30.73-53.226L225.267,72.004C232.096,60.176,244.045,54.262,255.998,54.262z" style="fill: rgb(225, 86, 75);"></path>
	<path class="st0" d="M267.08,322.371l7.258-107.562c0.242-3.531-2.558-6.523-6.094-6.523h-24.5c-3.535,0-6.328,2.985-6.102,6.508
		l7.043,107.578H267.08z" style="fill: rgb(225, 86, 75);"></path>
	<path class="st0" d="M75.733,428.266h360.534c5.922,0,11.02-2.946,13.985-8.078c2.965-5.129,2.965-11.012,0-16.145L269.982,91.808
		c-2.961-5.129-8.058-8.074-13.984-8.074c-5.926,0-11.02,2.945-13.981,8.074L61.748,404.043c-2.961,5.133-2.961,11.016,0,16.149
		C64.709,425.32,69.806,428.266,75.733,428.266z M255.998,97.476c1.285,0,1.75,0.622,2.086,1.203l180.27,312.234
		c0.336,0.582,0.641,1.297,0,2.402c-0.641,1.114-1.414,1.207-2.086,1.207H75.733c-0.676,0-1.446-0.094-2.086-1.199
		c-0.641-1.114-0.336-1.828,0-2.41L253.912,98.68C254.252,98.098,254.717,97.476,255.998,97.476z" style="fill: rgb(225, 86, 75);"></path>
	<path class="st0" d="M110.451,397.308c3.82,0,6.914-3.094,6.914-6.914c0-3.817-3.094-6.91-6.914-6.91
		c-3.817,0-6.914,3.094-6.914,6.91C103.537,394.215,106.634,397.308,110.451,397.308z" style="fill: rgb(225, 86, 75);"></path>
	<path class="st0" d="M255.014,145.536c3.817,0,6.91-3.098,6.91-6.914c0-3.817-3.094-6.91-6.91-6.91c-3.82,0-6.914,3.094-6.914,6.91
		C248.1,142.437,251.194,145.536,255.014,145.536z" style="fill: rgb(225, 86, 75);"></path>
	<path class="st0" d="M400.264,397.308c3.816,0,6.91-3.094,6.91-6.914c0-3.817-3.094-6.91-6.91-6.91
		c-3.821,0-6.914,3.094-6.914,6.91C393.35,394.215,396.443,397.308,400.264,397.308z" style="fill: rgb(225, 86, 75);"></path>
	<polygon class="st0" points="238.779,346.98 238.779,346.98 238.619,346.98 238.619,381.508 273.381,381.508 273.381,346.98 
		238.885,346.98 	" style="fill: rgb(225, 86, 75);"></polygon>
</g>
</svg>
