<!--?xml version="1.0" encoding="utf-8"?-->
<!-- Generator: Adobe Illustrator 19.1.1, SVG Export Plug-In . SVG Version: 6.00 Build 0)  -->
<svg version="1.1" id="_x31_0" xmlns="http://www.w3.org/2000/svg" xmlns:xlink="http://www.w3.org/1999/xlink" x="0px" y="0px" viewBox="0 0 512 512" style="width: 256px; height: 256px; opacity: 1;" xml:space="preserve">
<style type="text/css">
	.st0{fill:#374149;}
</style>
<g>
	<path class="st0" d="M511.82,300.514H512L386.726,58.134h-23.102V6.381h-85.066v51.754H137.523H121.25h-1.661L2.809,295.725
		l-2.363,4.789L0,301.404v8.618h27.633v7.465v188.133h218.442h30.312H480.73V317.615v-17.102h21.359l9.766,0.07L511.82,300.514z
		 M304.086,121.377V58.134V31.908h34.012v26.226v63.242H304.086z M448.82,317.615V472.81v0.898H277.984V317.615v-17.102H448.82
		V317.615z M138.726,91.873l105.77,204.719v3.922h-0.015v173.195h-75.367v-98.34h-52.137v98.199v0.141H59.539V300.514h-0.191v-4.789
		H44.687l-6.301-0.07l62.977-128.035L138.726,91.873z" style="fill: rgb(245, 158, 11);"></path>
	<polygon class="st0" points="116.977,292.502 116.977,292.662 169.114,292.662 169.114,224.951 116.977,224.951 116.977,292.295 
		116.973,292.502 	" style="fill: rgb(245, 158, 11);"></polygon>
</g>
</svg>
