<!--?xml version="1.0" encoding="utf-8"?-->
<!-- Generator: Adobe Illustrator 21.1.0, SVG Export Plug-In . SVG Version: 6.00 Build 0)  -->
<svg version="1.1" id="_x31_0" xmlns="http://www.w3.org/2000/svg" xmlns:xlink="http://www.w3.org/1999/xlink" x="0px" y="0px" viewBox="0 0 512 512" style="width: 256px; height: 256px; opacity: 1;" xml:space="preserve">
<style type="text/css">
	.st0{fill:#374149;}
</style>
<g>
	<path class="st0" d="M283.84,42.172c-0.719-0.481-1.359-1.039-2-1.68h-51.762c-0.637,0.641-1.278,1.199-2,1.68v30.32h55.762V42.172
		z" style="fill: rgb(245, 158, 11);"></path>
	<path class="st0" d="M169.121,42.172c-0.722-0.481-1.363-1.039-2-1.68h-51.762c-0.641,0.641-1.281,1.199-2,1.68v30.32h55.762
		V42.172z" style="fill: rgb(245, 158, 11);"></path>
	<path class="st0" d="M398.558,42.172c-0.718-0.481-1.359-1.039-2-1.68h-51.679c-0.641,0.641-1.282,1.199-2,1.68v30.32h55.679
		V42.172z" style="fill: rgb(245, 158, 11);"></path>
	<path class="st0" d="M292.645,468.554h-73.297c-8.551,0-15.481,6.934-15.481,15.485v16.828h104.262v-16.828
		C308.129,475.488,301.195,468.554,292.645,468.554z" style="fill: rgb(245, 158, 11);"></path>
	<path class="st0" d="M501.442,308.89V68.652c0-15.602-12.641-28.16-28.164-28.16h-13.68c-0.637,0.641-1.278,1.199-2,1.68v30.32
		h11.844V308.89H45.082l-2.524-0.004V72.492h11.688h0.07l0,0h0.082v-30.32c-0.718-0.481-1.359-1.039-2-1.68h-13.68
		c-15.519,0-28.16,12.558-28.16,28.16V308.89H0.145l-0.062-0.004v0.004H0v47.68h233.187v97.629h45.618V356.57H512v-47.68H501.442z" style="fill: rgb(245, 158, 11);"></path>
	<path class="st0" d="M69.278,31.133h5.843v9.359v6.641h-4.722v25.359v0.321c0,7.437,6.082,13.437,13.519,13.437
		c7.442,0,13.442-6,13.442-13.437v-0.321V47.133h-4.718v-6.641v-9.359h5.918c4.801,0,8.719-3.922,8.719-8.722v-2.559
		c0-4.801-3.918-8.718-8.719-8.718H69.278c-4.879,0-8.719,3.918-8.719,8.718v2.559C60.558,27.211,64.398,31.133,69.278,31.133z" style="fill: rgb(245, 158, 11);"></path>
	<path class="st0" d="M184,31.133h5.918v9.359v6.641h-4.797v25.359v0.321c0,7.437,6.078,13.437,13.52,13.437
		c7.438,0,13.438-6,13.438-13.437v-0.321V47.133h-4.719v-6.641v-9.359h5.918c4.801,0,8.722-3.922,8.722-8.722v-2.559
		c0-4.801-3.922-8.718-8.722-8.718H184c-4.801,0-8.722,3.918-8.722,8.718v2.559C175.278,27.211,179.199,31.133,184,31.133z" style="fill: rgb(245, 158, 11);"></path>
	<path class="st0" d="M298.718,31.133h5.922v9.359v6.641h-4.801v25.359v0.321c0,7.437,6.078,13.437,13.519,13.437
		s13.52-6,13.52-13.437v-0.321V47.133h-4.801v-6.641v-9.359H328c4.801,0,8.718-3.922,8.718-8.722v-2.559
		c0-4.801-3.918-8.718-8.718-8.718h-29.282c-4.801,0-8.718,3.918-8.718,8.718v2.559C290,27.211,293.918,31.133,298.718,31.133z" style="fill: rgb(245, 158, 11);"></path>
	<path class="st0" d="M413.442,31.133h5.918v9.359v6.641h-4.801v25.359v0.321c0,7.437,6.082,13.437,13.52,13.437
		c7.441,0,13.519-6,13.519-13.437v-0.321V47.133h-4.797v-6.641v-9.359h5.918c4.801,0,8.723-3.922,8.723-8.722v-2.559
		c0-4.801-3.922-8.718-8.723-8.718h-29.277c-4.801,0-8.723,3.918-8.723,8.718v2.559C404.718,27.211,408.641,31.133,413.442,31.133z" style="fill: rgb(245, 158, 11);"></path>
	<rect x="103.918" y="142.652" class="st0" width="149.282" height="16" style="fill: rgb(245, 158, 11);"></rect>
	<polygon class="st0" points="408.078,190.89 105.851,190.89 103.996,190.886 103.996,190.89 103.918,190.89 103.918,206.89 
		408.078,206.89 	" style="fill: rgb(245, 158, 11);"></polygon>
	<polygon class="st0" points="103.996,239.211 103.918,239.211 103.918,255.211 408.078,255.211 408.078,239.211 105.851,239.211 
		103.996,239.207 	" style="fill: rgb(245, 158, 11);"></polygon>
</g>
</svg>
