<!--?xml version="1.0" encoding="utf-8"?-->
<!-- Generator: Adobe Illustrator 19.1.1, SVG Export Plug-In . SVG Version: 6.00 Build 0)  -->
<svg version="1.1" id="_x31_0" xmlns="http://www.w3.org/2000/svg" xmlns:xlink="http://www.w3.org/1999/xlink" x="0px" y="0px" viewBox="0 0 512 512" style="width: 256px; height: 256px; opacity: 1;" xml:space="preserve">
<style type="text/css">
	.st0{fill:#374149;}
</style>
<g>
	<path class="st0" d="M96.24,15.359C86.4,25.121,80.959,38.32,80.959,52.16v407.68c0,28.718,23.363,52.16,52.164,52.16H378.88
		c28.719,0,52.161-23.442,52.161-52.16V52.238c0-28.797-23.442-52.156-52.161-52.156L133.123,0
		C119.279,0,106.002,5.519,96.24,15.359z M274.72,459.84c-4.558,5.199-11.278,8.48-18.718,8.48c-7.442,0-14.16-3.281-18.723-8.48
		c-3.758-4.398-6.156-10.078-6.156-16.321c0-13.679,11.199-24.797,24.879-24.797c13.679,0,24.801,11.118,24.801,24.797
		C280.803,449.762,278.482,455.442,274.72,459.84z M378.88,382.879H133.123V52.16l245.758,0.078V382.879z" style="fill: rgb(245, 158, 11);"></path>
	<path class="st0" d="M202.56,250.32h106.882c5.438,0,9.836-4.398,9.836-9.839v-68.879c0-5.363-4.398-9.762-9.836-9.762h-19.601
		v-10.078c0-21.121-15.2-38.242-33.84-38.242c-9.36,0-17.84,4.321-24,11.203c-6.082,6.879-9.922,16.477-9.922,27.039v10.078H202.56
		c-5.438,0-9.84,4.398-9.84,9.762v68.879C192.72,245.922,197.123,250.32,202.56,250.32z M261.123,205.519
		c0.32,0.719,0.558,1.52,0.558,2.402v14.398c0,3.122-2.558,5.68-5.679,5.68c-3.122,0-5.68-2.558-5.68-5.68v-14.398
		c0-0.882,0.238-1.683,0.558-2.402c-3.758-1.839-6.238-5.679-6.238-10.078c0-6.321,5.118-11.359,11.36-11.359
		c6.238,0,11.359,5.038,11.359,11.359C267.361,199.84,264.803,203.68,261.123,205.519z M237.201,151.762
		c0-12.801,8.48-23.121,18.801-23.121c10.32,0,18.718,10.32,18.718,23.121v10.078h-37.519V151.762z" style="fill: rgb(245, 158, 11);"></path>
	<path class="st0" d="M212.002,338.32h88c6.16,0,11.84-2.48,15.918-6.558c4-4.082,6.562-9.679,6.562-15.922
		c0-12.398-10.082-22.481-22.48-22.481h-88c-6.16,0-11.84,2.481-15.922,6.562c-4,4.078-6.558,9.68-6.558,15.918
		C189.521,328.238,199.6,338.32,212.002,338.32z M212.002,309.359h51.84v12.961h-51.84c-3.602,0-6.481-2.878-6.481-6.48
		S208.4,309.359,212.002,309.359z" style="fill: rgb(245, 158, 11);"></path>
</g>
</svg>
