<svg data-v-0409c764="" viewBox="0 0 108 144" width="44" height="44" fill="none" xmlns="http://www.w3.org/2000/svg" class="lock-contents__com-group-mark"><path data-v-0409c764="" d="M77.914 67.705l-8.792 30.074 30.074 8.793 8.793-30.075-30.075-8.792z" fill="#0068B7"></path><path data-v-0409c764="" d="M27.136 13.999l-17.128 28.1 28.1 17.127 17.128-28.1L27.136 14z" fill="#2AA738"></path><path data-v-0409c764="" d="M63.453 73.943l-29 4.058L38.512 107l29-4.058-4.06-29z" fill="#E4007F"></path><path data-v-0409c764="" d="M48.209 100.476l-13.487 30.038L64.76 144l13.487-30.038-30.038-13.486z" fill="#00693E"></path><path data-v-0409c764="" d="M29.241 57.25L0 72.384l15.136 29.241L44.377 86.49 29.241 57.25z" fill="#E60012"></path><path data-v-0409c764="" d="M61.116 42.603l-.688 2.644 13.532 3.522.688-2.643-13.532-3.523zM59.615 48.36l-.687 2.643 13.532 3.52.687-2.643-13.532-3.52zM58.121 54.113l-.688 2.643 13.532 3.522.688-2.643-13.532-3.522zM56.623 59.872l-.688 2.643 13.532 3.52.687-2.642-13.531-3.521z" fill="#000"></path><path data-v-0409c764="" d="M82.16 52.57l-13.185 5.114 2.731 7.042 13.186-5.114-2.731-7.042zM52.69 45.844l-6.561 3.742 7.008 12.285 6.56-3.743-7.008-12.284z" fill="#BFBFBF"></path><path data-v-0409c764="" d="M58.378 68.823a2.272 2.272 0 100-4.545 2.274 2.274 0 100 4.545zM64.808 70.75a2.272 2.272 0 100-4.545 2.274 2.274 0 100 4.545z" fill="#000"></path><path data-v-0409c764="" d="M77.54 0L44.998 10.324l10.324 32.542 32.542-10.324L77.54 0z" fill="#FFF100"></path></svg>