<!--?xml version="1.0" encoding="utf-8"?-->
<!-- Generator: Adobe Illustrator 19.1.1, SVG Export Plug-In . SVG Version: 6.00 Build 0)  -->
<svg version="1.1" id="_x31_0" xmlns="http://www.w3.org/2000/svg" xmlns:xlink="http://www.w3.org/1999/xlink" x="0px" y="0px" viewBox="0 0 512 512" style="width: 256px; height: 256px; opacity: 1;" xml:space="preserve">
<style type="text/css">
	.st0{fill:#374149;}
</style>
<g>
	<path class="st0" d="M488.119,324.353l-0.012-0.004c-2.851-1.031-5.813-1.726-8.793-2.062c-3.602-0.406-11.918-0.766-20.653-0.234
		l-179.09-119.715c-4.496-3.004-9.656-4.863-15.035-5.414c-40.339-5.004-63.648,44.382-79.449,87.969
		c-15.801,43.59-29.554,96.445,4.457,118.328c4.594,3.098,9.879,5.023,15.39,5.613l214,22.817c6.383,6.019,13,11.07,16.004,13.042
		c2.519,1.664,5.242,3.027,8.086,4.059c2.446,0.886,4.934,1.515,7.45,1.898c8.629,1.308,17.488-0.352,25.336-4.926
		c8.164-4.754,14.046-12.64,17.27-21.523l16.476-45.457C516.865,358.583,507.217,334.107,488.119,324.353z M214.033,369.247
		c-0.167,0.137-0.339,0.281-0.503,0.41c-1.11,0.887-2.126,1.594-3.07,2.184c-0.539,0.328-1.062,0.641-1.555,0.879
		c-0.297,0.152-0.617,0.332-0.89,0.445c-3.234-2.816-11.754-15.793,10.172-76.277c21.824-60.211,36.637-64.946,41-65.078
		c4.199,8.008,6.711,35.508-8.305,76.93C238.779,342.126,223.744,361.251,214.033,369.247z M478.205,361.935l-9.355,25.805
		l-9.352,25.809c-0.672,1.855-2.71,2.75-4.473,2.109c-0.254-0.094-0.496-0.214-0.73-0.367c-4.453-2.93-15.476-12.48-18.343-17.23
		l-124.153-13.238l-74.926-8.086c13.844-14.645,26.164-37.414,34.551-60.55c8.402-23.184,13.542-48.614,12.27-68.746
		l166.507,111.305c5.246-1.817,19.828-2.082,25.125-1.481c0.278,0.031,0.547,0.094,0.797,0.188
		C477.885,358.091,478.877,360.079,478.205,361.935z" style="fill: rgb(245, 158, 11);"></path>
	<path class="st0" d="M8.393,229.295l69.098,22.496c6.09,1.98,12.672-1.098,15.039-7.051c2.371-5.945-0.282-12.707-6.058-15.469
		L20.85,198.052c-6.332-3.02-13.902-0.051-16.496,6.461L0.87,213.24C-1.732,219.759,1.717,227.115,8.393,229.295z" style="fill: rgb(245, 158, 11);"></path>
	<path class="st0" d="M94.225,373.204c-2.527-5.886-9.187-8.797-15.215-6.652l-68.48,24.324c-6.618,2.34-9.871,9.785-7.102,16.23
		l3.711,8.637c2.773,6.438,10.414,9.21,16.671,6.031l64.77-32.961C94.279,385.915,96.752,379.083,94.225,373.204z" style="fill: rgb(245, 158, 11);"></path>
	<path class="st0" d="M182.166,152.712c5.878-2.531,8.789-9.191,6.644-15.226l-24.312-68.481c-2.352-6.617-9.797-9.87-16.242-7.094
		l-8.637,3.703c-6.45,2.778-9.207,10.414-6.027,16.672l32.957,64.77C169.443,152.763,176.279,155.24,182.166,152.712z" style="fill: rgb(245, 158, 11);"></path>
</g>
</svg>
