<!--?xml version="1.0" encoding="utf-8"?-->
<!-- Generator: Adobe Illustrator 18.1.1, SVG Export Plug-In . SVG Version: 6.00 Build 0)  -->

<svg version="1.1" id="_x32_" xmlns="http://www.w3.org/2000/svg" xmlns:xlink="http://www.w3.org/1999/xlink" x="0px" y="0px" viewBox="0 0 512 512" style="width: 256px; height: 256px; opacity: 1;" xml:space="preserve">
<style type="text/css">
	.st0{fill:#4B4B4B;}
</style>
<g>
	<path class="st0" d="M449.312,246.785c-1.648-43.88-19.928-83.426-48.571-112.815l-50.984,87.1
		c-2.53,4.284-5.447,8.083-8.636,11.466c6.93,18.523,6.213,37.938-2.103,56.16c-8.298,18.232-22.478,31.531-41.001,38.452
		c-8.278,3.102-16.885,4.681-25.521,4.681c-10.41,0-20.704-2.287-30.59-6.794c-18.407-8.365-31.754-22.808-38.539-41.738
		c-6.533-18.988-5.719-37.967,2.181-55.346c8.2-18.047,22.304-31.269,40.798-38.209c0.232-0.088,0.464-0.145,0.698-0.224
		c0.222-4.168,0.726-8.277,1.851-12.251l0.572-1.852l31.308-93.099c-0.804-0.01-1.58-0.117-2.384-0.117
		c-94.486,0-171.069,76.593-171.098,171.059c-12.736,24.562-43.326,86.886-43.326,86.886c-2.346,4.692-2.424,10.198-0.233,14.966
		c2.2,4.769,6.446,8.288,11.534,9.557l27.964,7.008c0,0,14.229,64.312,17.486,79.229c4.914,22.594,12.223,27.498,33.596,27.498
		c21.392,0,46.67-6.93,46.67-6.93V512h183.312v-64.147c0-23.234,6.397-52.361,24.445-74.15
		C445.037,329.891,452.094,283.026,449.312,246.785z" style="fill: rgb(245, 158, 11);"></path>
	<path class="st0" d="M295.157,208.043c8.51,3.877,15.286,1.502,20.336-7.028l83.436-142.514c1.57-2.549,3.451-6.261,5.67-11.156
		c3.46-7.589,3.984-15.683,1.599-24.31c-2.384-8.617-8.374-15.102-17.99-19.473c-9.974-4.536-18.92-4.73-26.878-0.64
		c-7.91,3.945-13.531,9.634-16.914,17.05c-2.083,4.546-3.634,8.404-4.691,11.583l-52.632,156.52
		c-0.96,3.392-0.756,7.144,0.591,11.283C289.012,203.487,291.512,206.394,295.157,208.043z" style="fill: rgb(245, 158, 11);"></path>
	<path class="st0" d="M260.302,226.904c-8.569,3.219-14.781,9.044-18.61,17.477c-3.683,8.103-4.013,16.613-0.95,25.522
		c3.14,8.762,9.034,15.102,17.632,19.007c8.588,3.916,17.175,4.255,25.764,1.037c8.598-3.208,14.84-9.112,18.755-17.719
		c3.916-8.587,4.265-17.185,1.047-25.772c-3.13-8.346-9.073-14.52-17.845-18.504C277.516,224.036,268.899,223.696,260.302,226.904z" style="fill: rgb(245, 158, 11);"></path>
</g>
</svg>
