<!--?xml version="1.0" encoding="utf-8"?-->
<!-- Generator: Adobe Illustrator 18.1.1, SVG Export Plug-In . SVG Version: 6.00 Build 0)  -->

<svg version="1.1" id="_x31_0" xmlns="http://www.w3.org/2000/svg" xmlns:xlink="http://www.w3.org/1999/xlink" x="0px" y="0px" viewBox="0 0 512 512" style="width: 256px; height: 256px; opacity: 1;" xml:space="preserve">
<style type="text/css">
	.st0{fill:#374149;}
</style>
<g>
	<path class="st0" d="M465.914,50.16c-10.469-18.11-23.254-34.703-37.875-49.438c-0.191-0.199-0.367-0.414-0.562-0.609h-0.004
		c-0.039-0.035-0.07-0.078-0.11-0.114l-21.43,21.426C419,34.488,430.363,49.25,439.668,65.317
		c18.125,31.214,28.492,67.465,28.492,106.046c0,38.614-10.367,74.832-28.492,106.051c-9.305,16.094-20.668,30.82-33.734,43.886
		l21.43,21.457c14.942-14.941,27.946-31.793,38.582-50.191c20.671-35.672,32.523-77.074,32.523-121.203
		S486.617,85.832,465.914,50.16z" style="fill: rgb(245, 158, 11);"></path>
	<path class="st0" d="M105.949,321.414L105.949,321.414l0.114-0.114C93,308.234,81.633,293.508,72.328,277.414
		C54.203,246.195,43.84,209.977,43.84,171.363c0-38.582,10.363-74.832,28.488-106.046C81.633,49.25,93,34.488,106.062,21.426
		L84.84,0.203l-0.09-0.09h-0.003L84.633,0c-14.91,14.91-27.914,31.762-38.551,50.16c-20.699,35.672-32.55,77.074-32.55,121.203
		s11.851,85.531,32.519,121.203c10.637,18.398,23.641,35.25,38.582,50.191l21.285-21.312L105.949,321.414z" style="fill: rgb(245, 158, 11);"></path>
	<path class="st0" d="M153.168,274.195l16.992-16.996l0.035-0.035l0,0l0.114-0.114c-7.465-7.468-13.942-15.882-19.274-25.07
		c-10.355-17.848-16.27-38.551-16.27-60.618c0-22.062,5.914-42.774,16.27-60.617c5.332-9.192,11.809-17.602,19.274-25.07
		l-16.954-16.958l-0.074-0.074l0,0l-0.114-0.114c-8.95,8.973-16.754,19.082-23.133,30.118c-12.414,21.406-19.52,46.238-19.52,72.714
		s7.106,51.328,19.52,72.742C136.414,255.137,144.218,265.246,153.168,274.195z" style="fill: rgb(245, 158, 11);"></path>
	<path class="st0" d="M381.961,98.649c-6.258-10.829-13.906-20.754-22.645-29.598c-0.129-0.133-0.246-0.273-0.37-0.406l-0.008,0.004
		c-0.035-0.035-0.07-0.078-0.11-0.118l-17.141,17.145c7.469,7.469,13.942,15.878,19.278,25.07
		c10.351,17.843,16.27,38.554,16.27,60.617c0,22.066-5.918,42.77-16.27,60.618c-5.336,9.187-11.809,17.602-19.278,25.07
		l17.141,17.145c8.95-8.949,16.758-19.058,23.133-30.09c12.414-21.414,19.52-46.266,19.52-72.742S394.375,120.054,381.961,98.649z" style="fill: rgb(245, 158, 11);"></path>
	<path class="st0" d="M293.797,149.543c-1.922-3.321-4.234-6.328-6.942-9.035c-2.707-2.707-5.718-5.02-9.035-6.942
		c-6.414-3.711-13.878-5.848-21.82-5.848c-7.946,0-15.406,2.137-21.824,5.848c-3.317,1.922-6.328,4.234-9.035,6.942
		c-2.703,2.707-5.016,5.714-6.938,9.035c-3.711,6.414-5.848,13.874-5.848,21.82c0,7.988,2.137,15.406,5.848,21.824
		c1.922,3.317,4.234,6.371,6.938,9.035c2.707,2.703,5.718,5.016,9.035,6.938c0.941,0.543,1.988,0.902,2.98,1.363
		c0.172,0.082,0.371,0.168,0.547,0.25c1.054,0.469,2.054,1.035,3.141,1.438v137.121v0.84l0,0v0.16h30.308V212.211
		c2.313-0.86,4.562-1.832,6.668-3.051c3.317-1.922,6.328-4.234,9.035-6.938c2.707-2.664,5.02-5.718,6.942-9.035
		c3.707-6.418,5.848-13.836,5.848-21.824C299.645,163.418,297.504,155.957,293.797,149.543z" style="fill: rgb(245, 158, 11);"></path>
	<polygon class="st0" points="224.75,414.106 224.793,413.946 201.222,413.946 194.207,442.332 188.043,466.683 172.77,413.946 
		155.848,413.946 147.668,442.207 140.453,466.641 127.547,413.946 108.906,413.946 104.133,413.902 104.145,413.946 
		103.981,413.946 130.137,512 148.656,512 157.211,483.789 164.386,460.578 179.984,512 198.481,512 219.32,434.336 
		224.797,414.106 	" style="fill: rgb(245, 158, 11);"></polygon>
	<polygon class="st0" points="243.114,445.359 243.114,511.637 243.11,511.84 243.114,511.84 243.114,512 264.523,512 
		264.523,445.359 	" style="fill: rgb(245, 158, 11);"></polygon>
	<path class="st0" d="M253.754,410.035c-6.738,0-12.218,5.481-12.218,12.218c0,6.742,5.48,12.219,12.218,12.219
		c6.738,0,12.223-5.477,12.223-12.219C265.977,415.516,260.492,410.035,253.754,410.035z" style="fill: rgb(245, 158, 11);"></path>
	<polygon class="st0" points="361.969,414.11 361.969,413.95 295.918,413.95 295.918,512 318.512,512 318.512,473.946 
		355.515,473.946 355.515,453.606 355.515,453.481 355.515,453.481 355.515,453.32 318.512,453.32 318.512,434.566 361.969,434.566 
		361.969,414.234 361.969,414.11 	" style="fill: rgb(245, 158, 11);"></polygon>
	<polygon class="st0" points="406.562,445.519 406.562,445.359 385.16,445.359 385.16,511.637 385.16,511.84 385.16,511.84 
		385.16,512 406.562,512 406.562,445.926 406.562,445.519 	" style="fill: rgb(245, 158, 11);"></polygon>
	<path class="st0" d="M395.797,410.313c-6.738,0-12.218,5.48-12.218,12.218s5.48,12.219,12.218,12.219s12.222-5.481,12.222-12.219
		S402.535,410.313,395.797,410.313z" style="fill: rgb(245, 158, 11);"></path>
</g>
</svg>
